<svg width="231" height="261" viewBox="0 0 231 261" fill="none" xmlns="http://www.w3.org/2000/svg">
<path d="M65 26.4243C98.99 3.94826 129.76 -8.61166 170.27 6.82334C175.78 9.68934 180.91 12.1983 185.98 15.8183C189.72 17.9753 197.38 23.1953 200.36 26.1453C250.57 71.0303 230.73 150.376 190.55 194.307C161.28 226.317 109.29 258.52 65.58 260.5C63.14 260.627 60.69 260.585 58.26 260.376C53.86 259.853 49.4699 259.378 45.0599 258.95C28.9999 252.399 29.1499 254.122 12.0599 244.48C12.0299 244.442 3.48001 237.996 1.39001 235.946C0.0900147 233.936 0.2 228.563 0 225.694C0.7 219.654 3.00997 208.028 4.46997 202.234C5.41997 193.919 7.82 182.486 9.38 174.039C9.58 170.664 17.76 127.108 18.72 123.379C19.46 113.747 23.17 94.9043 24.77 84.2793C28.33 58.2833 29.69 57.5063 49.62 39.3253C51.36 38.1863 61.5 29.2323 64.29 26.9683L65 26.4243Z" fill="url(#paint0_linear_8_225)"/>
<path d="M185.98 15.8184C189.72 17.9754 197.38 23.1953 200.36 26.1453C200.31 29.1603 200.37 29.4953 201.07 32.4833L201.25 33.2253C197.34 34.8573 195.2 35.8123 190.99 36.7963C188.23 34.1773 186.96 29.5144 185.53 25.7684C183.21 26.7494 182.99 27.1073 180.51 26.6143L179.83 24.5383L181.38 22.4304C179.79 21.0744 179.31 20.9824 178.58 19.0964L179.41 18.0143C182.44 17.5693 183.42 17.4674 185.98 15.8184Z" fill="#E98683"/>
<path d="M154.25 52.4224C165.88 51.1534 180.88 54.9674 191.65 58.9864C153.94 59.5774 130.81 71.1474 101.4 93.4284C120.3 100.255 132.63 111.09 135.87 131.737C138.01 146.262 134.32 161.045 125.59 172.853C115.17 186.925 97.2498 195.776 80.1698 198.349C58.6898 200.393 43.0798 196.197 28.0898 179.907C33.4498 179.006 39.9798 178.149 45.0498 176.43C75.0298 166.25 80.6399 135.965 49.1599 122.082C53.0199 116.456 57.2799 111.116 61.9099 106.105C82.5499 83.4414 123.39 53.8994 154.25 52.4224Z" fill="#D97774"/>
<defs>
<linearGradient id="paint0_linear_8_225" x1="168.768" y1="13.611" x2="42.4996" y2="257.21" gradientUnits="userSpaceOnUse">
<stop stop-color="#EA8E87"/>
<stop offset="1" stop-color="#FACFBD"/>
</linearGradient>
</defs>
</svg>
