<svg width="554" height="775" viewBox="0 0 554 775" fill="none" xmlns="http://www.w3.org/2000/svg">
<path d="M7.29321 288.931C2.29323 212.931 65.7932 104.431 65.7932 104.431C247.082 -55.8247 344.42 -12.0894 516.793 104.431C565.293 157.431 551.293 288.931 551.293 288.931L544.793 386.931L516.793 557.431C504.793 597.431 474.793 637.931 474.793 637.931C377.793 752.431 224.293 768.931 224.293 768.931C127.293 789.931 89.2932 744.431 89.2932 744.431C22.7932 686.431 2.29323 568.931 2.29323 568.931C-5.70677 511.431 9.79323 408.431 9.79323 408.431C12.2932 367.931 7.29321 288.931 7.29321 288.931Z" fill="#F7C7B9"/>
</svg>
