<svg width="386" height="559" viewBox="0 0 386 559" fill="none" xmlns="http://www.w3.org/2000/svg">
<path d="M384.355 438.386C384.355 438.386 287.694 385.267 269.855 324.886C261.591 296.916 258.289 271.466 256.855 241.886C256.033 224.933 253.584 206.287 256.855 185.886C260.817 161.167 256.855 146.386 261.855 119.886C264.528 93.8702 269.855 68.1223 269.855 34.8858C269.855 -69.2623 10.3546 96.3858 10.3546 96.3858C10.3546 96.3858 27.8546 267.386 29.8546 269.386C31.8546 271.386 37.3546 325.886 39.8546 328.886C42.3546 331.886 46.8546 381.886 45.8546 387.886C44.8546 393.886 29.8546 422.386 29.8546 425.386C29.8546 428.386 18.3546 440.886 3.35457 460.386C-11.6454 479.886 37.3546 558.386 37.3546 558.386H173.855L384.355 438.386Z" fill="#F4BFAD" stroke="#F4BFAD"/>
<path d="M244.34 139.657L246.01 139.931C248.81 136.276 250.28 132.684 252.27 128.541C254.48 128.266 252.8 129.476 258.43 129.189C264.31 135.601 251.08 155.946 258.51 164.264C258.34 169.676 258.04 175.561 258.02 180.93C257.21 195.625 257.37 208.967 256.85 223.326C256.98 233.678 256.91 245.088 257.79 255.298C259.14 285.258 261.59 309.778 270.13 338.388L268.57 340.118C258.33 342.228 240.13 349.748 230.44 353.758C196.35 367.878 163.63 385.108 132.68 405.208C118.67 414.448 105.67 424.818 92.22 433.778C88.43 437.448 81.06 442.478 78.25 445.518C72.09 450.468 57.43 462.288 52.73 467.978C51.15 474.318 45.5 479.208 38.71 478.038C27.89 471.148 28.76 453.368 27.76 442.408C27.46 439.128 25.5 433.018 24.5 429.708L27.1899 432.648C27.6099 431.628 28.05 430.608 28.51 429.608C32.05 421.818 31.9199 421.978 39.8099 418.978L46.7799 398.768C46.4499 384.078 45.7499 371.218 43.8099 356.648C42.0699 349.138 40.51 338.618 39.14 330.838C37.52 325.358 35.76 314.208 34.34 307.958L31.08 288.328C30.9 287.458 29.8799 282.728 31.0299 282.378C95.7699 262.718 143.85 237.618 197.33 196.561C201.75 198.257 203.05 194.336 208.97 200.332C214.79 193.911 233.95 160.937 236.76 152.858C239.41 147.639 241.12 144.522 244.34 139.657Z" fill="#F4BAAB"/>
<path d="M31.0798 288.328C30.8998 287.458 29.8798 282.728 31.0298 282.378C95.7698 262.718 143.85 237.618 197.33 196.561C201.75 198.257 203.05 194.336 208.97 200.332C179.73 247.528 103.69 338.988 48.8198 352.158C47.6898 352.438 46.5399 352.678 45.3899 352.878L44.8499 353.698L43.8098 356.648C42.0698 349.138 40.5099 338.618 39.1399 330.838C37.5199 325.358 35.7598 314.208 34.3398 307.958L31.0798 288.328Z" fill="#B9524F"/>
</svg>
