<svg width="540" height="371" viewBox="0 0 540 371" fill="none" xmlns="http://www.w3.org/2000/svg">
<path d="M499.99 12.2918C531.49 10.7918 538.99 0.291809 538.99 0.291809C530.525 59.336 524.5 93.3573 511.99 155.292C501.962 184.686 493.949 200.872 475.99 229.292C426.483 288.922 385.273 317.647 271.49 354.792C224.723 367.829 197.426 370.884 146.99 369.292C112.354 362.02 94.1483 350.251 64.99 316.792C48.1605 294.051 37.3302 278.457 20.99 245.292C12.1511 224.052 7.89026 204.777 0.48999 168.292C3.26706 171.849 4.36881 171.965 7.98999 177.792C21.0756 190.17 27.7789 199.089 36.99 220.292C43.0899 238.851 46.9305 249.625 59.99 274.292C62.49 280.792 75.99 294.792 75.99 294.792C95.296 307.499 106.022 307.154 124.99 294.792C127.49 290.792 132.99 292.292 132.99 292.292C183.636 317.394 209.909 312.752 254.99 288.792C275.045 272.866 281.99 265.292 291.99 243.792C302.99 207.292 309.49 205.792 309.49 205.792C321.99 186.292 371.49 164.792 396.49 152.292C421.49 139.792 454.99 106.292 454.99 106.292C484.49 83.7918 499.99 12.2918 499.99 12.2918Z" fill="#3D3332"/>
<path d="M161.99 246.792C128.99 249.792 103.99 245.792 103.99 245.792C104.406 257.185 111.642 262.903 132.99 272.292C154.261 262.885 160.99 257.325 161.99 246.792Z" fill="#3D3332"/>
<path d="M499.99 12.2918C531.49 10.7918 538.99 0.291809 538.99 0.291809C530.525 59.336 524.5 93.3573 511.99 155.292C501.962 184.686 493.949 200.872 475.99 229.292C426.483 288.922 385.273 317.647 271.49 354.792C224.723 367.829 197.426 370.884 146.99 369.292C112.354 362.02 94.1483 350.251 64.99 316.792C48.1605 294.051 37.3302 278.457 20.99 245.292C12.1511 224.052 7.89026 204.777 0.48999 168.292C3.26706 171.849 4.36881 171.965 7.98999 177.792C21.0756 190.17 27.7789 199.089 36.99 220.292C43.0899 238.851 46.9305 249.625 59.99 274.292C62.49 280.792 75.99 294.792 75.99 294.792C95.296 307.499 106.022 307.154 124.99 294.792C127.49 290.792 132.99 292.292 132.99 292.292C183.636 317.394 209.909 312.752 254.99 288.792C275.045 272.866 281.99 265.292 291.99 243.792C302.99 207.292 309.49 205.792 309.49 205.792C321.99 186.292 371.49 164.792 396.49 152.292C421.49 139.792 454.99 106.292 454.99 106.292C484.49 83.7918 499.99 12.2918 499.99 12.2918Z" stroke="black"/>
<path d="M161.99 246.792C128.99 249.792 103.99 245.792 103.99 245.792C104.406 257.185 111.642 262.903 132.99 272.292C154.261 262.885 160.99 257.325 161.99 246.792Z" stroke="black"/>
</svg>
