<svg width="230" height="89" viewBox="0 0 230 89" fill="none" xmlns="http://www.w3.org/2000/svg">
<path d="M185.564 59.5027C195.618 61.8021 206.52 69.5 229.064 87.0027C227.147 53.2622 221.973 40.7187 204.564 31.0027C198.375 26.4792 189.786 22.3818 160.064 15.0027C135.064 8.00269 124.855 1.39755 107.564 0.502686C97.9832 2.50692 92.2738 5.22242 81.5636 12.5027C67.4521 6.47399 61.3073 4.7456 56.0636 7.00269C29.5636 21.5027 11.5438 34.2839 3.06362 46.0027C-0.436383 59.0027 0.0717287 78.3464 2.06362 84.5027C10.4175 75.3138 17.206 69.4595 28.0636 61.5027C29.1842 59.6492 37.1147 57.2005 55.5636 52.0027C63.6339 50.779 68.1167 49.0513 76.0636 44.5027C78.5636 42.0027 79.5636 41.0027 81.5636 37.0027C82.6065 41.1671 84.0353 42.5009 86.5636 44.5027C92.1626 47.0816 101.931 48.4987 124.564 51.0027C143.326 51.6405 156.934 53.6353 185.564 59.5027Z" fill="#3D3332" stroke="black"/>
</svg>
