<svg width="1200" height="1200" viewBox="0 0 1200 1200" fill="none" xmlns="http://www.w3.org/2000/svg">
<g clip-path="url(#clip0_42_269)">
<path d="M740.207 948.015C740.207 948.015 666.552 907.538 652.958 861.528C646.661 840.214 644.145 820.822 643.052 798.281C642.426 785.363 640.56 771.156 643.052 755.609C646.071 736.774 643.052 725.51 646.862 705.317C648.899 685.493 652.958 665.874 652.958 640.547C652.958 561.186 455.218 687.41 455.218 687.41C455.218 687.41 468.553 817.713 470.077 819.237C471.601 820.761 475.792 862.29 477.697 864.576C479.602 866.862 483.031 904.962 482.269 909.534C481.507 914.106 470.077 935.823 470.077 938.109C470.077 940.395 461.314 949.92 449.884 964.779C438.454 979.638 475.792 1039.46 475.792 1039.46H579.806L740.207 948.015Z" fill="#F4BFAD" stroke="#F4BFAD"/>
<g filter="url(#filter0_f_42_269)">
<path d="M471.011 833.671C470.874 833.008 470.097 829.403 470.973 829.137C520.305 814.156 556.942 795.029 597.694 763.744C601.062 765.036 602.053 762.048 606.564 766.617C584.283 802.581 526.34 872.274 484.529 882.309C483.668 882.522 482.792 882.705 481.915 882.858L481.504 883.483L480.711 885.73C479.386 880.008 478.197 871.992 477.153 866.063C475.918 861.887 474.577 853.391 473.495 848.629L471.011 833.671Z" fill="#B9524F"/>
</g>
<path d="M265.052 469.512C261.242 411.6 309.629 328.923 309.629 328.923C447.772 206.808 521.944 240.134 653.292 328.923C690.249 369.309 679.581 469.512 679.581 469.512L674.628 544.189L653.292 674.11C644.148 704.59 621.288 735.451 621.288 735.451C547.374 822.7 430.407 835.273 430.407 835.273C356.493 851.275 327.536 816.604 327.536 816.604C276.863 772.408 261.242 682.873 261.242 682.873C255.146 639.058 266.957 560.572 266.957 560.572C268.862 529.71 265.052 469.512 265.052 469.512Z" fill="#F7C7B9"/>
<g filter="url(#filter1_f_42_269)">
<path d="M543.773 652.826C572.729 644.444 568.157 621.965 541.106 621.965C514.056 621.965 489.29 625.013 478.622 631.49C467.953 637.967 470.621 649.778 484.718 655.874C491.195 658.676 514.817 661.208 543.773 652.826Z" fill="#F08887"/>
</g>
<g filter="url(#filter2_f_42_269)">
<path d="M301.351 655.033C316.29 647.54 311.682 634.521 296.986 636.849C282.291 639.176 269.125 643.126 263.942 647.908C258.758 652.691 261.323 659.508 269.558 661.932C273.341 663.046 286.413 662.525 301.351 655.033Z" fill="#F08887"/>
</g>
<path d="M231.421 349.283C224.304 389.644 232.363 419.001 262.451 475.679C262.92 476.561 264.264 476.295 264.351 475.3C269.219 419.701 283.627 383.139 308.764 329.852C357.914 344.916 387.039 342.118 440.59 325.661L493.169 299.753L620.042 344.33C612.573 359.809 610.309 370.609 607.469 391.193C604.449 405.146 604.531 415.454 606.326 436.151C606.968 460.802 639.353 469.184 641.258 479.852C643.163 490.52 642.144 502.41 641.759 518.714C641.295 538.317 640.914 556.883 642.198 573.092C642.296 574.338 643.51 575.173 644.713 574.837L668.309 568.244L786.038 498.14C799.455 459.466 808.256 425.483 814.352 397.67C821.972 341.663 802.341 315.891 772.823 299.753C767.193 240.515 745.368 212.103 660.428 173.26C605.844 158.769 572.328 152.541 512.981 170.212L346.864 204.122C311.085 217.684 299.635 232.012 285.904 262.796C280.13 280.736 281.247 291.857 288.952 313.088C279.303 306.148 276.294 300.434 272.95 288.704C243.467 316.013 237.057 328.538 231.421 349.283Z" fill="#272225" stroke="black"/>
<path d="M440.752 327.833C444.036 329.536 451.062 340.972 454.331 344.638C489.391 383.937 545.047 402.378 596.818 394.493C599.721 394.051 606.183 391.98 607.745 394.258C606.244 401.421 605.162 416.955 605.421 424.43C540.193 438.523 477.29 400.826 440.379 348.929C437.094 344.315 430.968 336.859 427.005 332.87L426.373 332.245L440.752 327.833Z" fill="#D97774"/>
<path d="M564.526 162.812C571.544 161.792 584.293 161.863 591.562 162.058C640.551 163.542 687.871 180.177 727.015 209.673C748.344 225.555 771.943 250.15 775.997 277.368C777.208 285.468 775.928 292.579 774.161 300.455C795.862 312.309 804.107 321.601 812.291 346.123C816.208 357.849 817.381 391.97 814.47 403.48L813.807 400.283C808.961 395.526 794.422 391.945 792.868 386.136C795.763 386.325 803.84 395.94 810.096 395.057L811.011 393.606L810.897 392.606C810.843 392.112 810.79 391.619 810.737 391.126C811.636 368.145 810.432 346.409 797.821 326.113C794.003 319.958 780.15 307.987 772.842 306.51C769.207 307.07 763.485 311.665 760.086 313.945C759.172 320.927 760.277 332.806 759.842 334.757C757.854 325.365 757.998 323.094 758.532 313.608C763.416 310.116 767.348 307.385 772.507 304.237C700.018 300.964 591.737 237.246 573.67 163.172C570.599 163.153 567.589 162.976 564.526 162.812Z" fill="#3A3538"/>
<path d="M684.715 365.933C692.93 423.372 723.039 433.98 792.157 439.847C776.352 403.14 769.553 380.489 758.248 339.263C749.569 310.881 742.029 304.129 725.482 302.687C693.663 313.794 684.158 327.143 684.715 365.933Z" fill="#3A3538"/>
<path d="M815.017 404.414C821.754 337.524 781.108 288.97 764.344 306.496C747.58 324.023 764.319 377.43 815.017 404.414Z" fill="#3A3538"/>
<path d="M293.84 320.913C290.419 311.806 288.788 299.163 288.582 289.724C288.262 275.066 294.427 255.7 305.468 245.462C327.795 224.762 355.951 216.662 385.73 216.812C423.358 217.001 454.943 229.497 486.253 249.581C494.437 254.831 505.799 263.031 512.596 269.826C545.331 305.432 579.21 335.381 630.782 338.631C651.067 339.909 679.459 333.41 697.488 323.943C681.608 355.941 661.011 374.128 627.269 387.197C622.636 388.991 613.873 391.116 608.875 392.828C608.364 393.656 607.922 394.369 607.549 394.967C605.987 392.689 599.525 394.76 596.622 395.202C544.851 403.087 489.195 384.646 454.135 345.347C450.866 341.681 443.84 330.245 440.556 328.542L426.177 332.954C403.873 339.335 380.129 344.213 356.812 342.406C348.095 341.516 337.785 340.597 329.563 337.742C322.811 336.277 316.327 333.593 309.85 331.145L309.141 331.415C304.196 329.698 298.107 324.31 293.84 320.913Z" fill="#3A3538"/>
<path d="M275.116 301.162C271.306 299.84 268.173 273.019 267.533 267.03C264.995 245.924 274.292 222.308 287.802 206.501C337.865 147.923 425 132.564 494.274 163.92C498.861 165.995 510.238 172.31 514.718 171.573C515.229 173.625 516.227 174.59 518.254 175.493C580.494 203.325 622.359 256.659 648.564 320.247C641.279 321.609 633.743 322.957 626.207 322.145C586.775 320.247 552.912 300.38 522.766 276.016C518.873 273.509 520.861 273.73 516.67 270.682L508.288 259.633C501.491 252.838 494.746 254.831 486.562 249.58C455.252 229.496 423.667 217 386.039 216.811C356.26 216.662 328.104 224.762 305.778 245.462C294.736 255.7 288.572 275.066 288.892 289.723C289.096 299.086 290.702 311.6 294.066 320.69C294.695 321.292 294.8 321.431 294.149 320.913C294.122 320.839 294.094 320.764 294.066 320.69C290.573 317.344 270.925 299.707 275.116 301.162Z" fill="#3A3538"/>
<path d="M283.2 273.548C279.725 290.722 287.703 305.174 293.791 320.874C290.37 311.767 288.739 299.124 288.534 289.684C288.214 275.027 294.378 255.661 305.419 245.423C327.746 224.723 355.902 216.623 385.681 216.772C423.309 216.961 454.894 229.457 486.204 249.541C494.388 254.792 505.75 262.992 512.547 269.787L514.124 268.005C489.87 232.108 458.506 209.53 415.506 201.03C381.833 194.376 349.204 199.697 320.202 218.68C303.073 229.896 287.307 253.241 283.2 273.548Z" fill="#2B272A"/>
<path d="M706.028 483.604C731.928 466.477 755.375 456.907 786.244 468.668C790.442 470.852 794.352 472.764 798.215 475.522C801.065 477.166 806.902 481.144 809.172 483.392C847.433 517.594 832.314 578.056 801.697 611.531C779.393 635.923 739.777 660.462 706.47 661.971C704.611 662.067 702.744 662.035 700.892 661.876C697.539 661.477 694.194 661.115 690.834 660.789C678.596 655.797 678.71 657.11 665.687 649.763C665.665 649.734 659.15 644.822 657.557 643.26C656.566 641.729 656.65 637.634 656.498 635.448C657.031 630.846 658.791 621.987 659.904 617.572C660.628 611.236 662.457 602.524 663.645 596.087C663.798 593.515 670.031 560.326 670.762 557.484C671.326 550.144 674.153 535.786 675.373 527.69C678.085 507.881 679.122 507.289 694.308 493.435C695.634 492.567 703.361 485.744 705.487 484.019L706.028 483.604Z" fill="url(#paint0_linear_42_269)"/>
<path d="M774.037 503.415C782.899 502.448 794.329 505.354 802.535 508.416C773.8 508.867 756.175 517.683 733.765 534.661C748.167 539.863 757.562 548.12 760.031 563.853C761.662 574.921 758.85 586.186 752.198 595.183C744.257 605.906 730.602 612.651 717.587 614.611C701.22 616.169 689.325 612.971 677.902 600.558C681.987 599.872 686.963 599.219 690.826 597.909C713.671 590.152 717.946 567.075 693.958 556.496C696.899 552.209 700.145 548.14 703.673 544.321C719.401 527.051 750.521 504.54 774.037 503.415Z" fill="#D97774"/>
<path d="M478.951 483.281C513.46 483.281 541.436 511.256 541.436 545.765C541.436 547.044 541.395 548.315 541.32 549.575C539.35 516.84 512.181 490.901 478.951 490.901C445.722 490.901 418.551 516.84 416.582 549.575C416.506 548.315 416.467 547.044 416.467 545.765C416.467 511.256 444.442 483.281 478.951 483.281Z" fill="#D48080"/>
<circle cx="478.951" cy="552.623" r="62.4841" fill="#EAD3C5"/>
<ellipse cx="475.522" cy="549.575" rx="43.0531" ry="47.2441" fill="#1D1C2A"/>
<ellipse cx="498.763" cy="528.62" rx="10.668" ry="11.049" fill="#FDF3FB"/>
<ellipse cx="505.621" cy="549.194" rx="5.33401" ry="5.71501" fill="white"/>
<path d="M334.098 557.194C334.145 558.454 334.171 559.725 334.171 561.005C334.171 592.568 319.842 618.154 302.167 618.154C284.492 618.154 270.163 592.568 270.163 561.005C270.163 559.725 270.189 558.454 270.235 557.194C271.333 586.981 285.208 610.534 302.167 610.534C319.125 610.534 333 586.981 334.098 557.194ZM302.167 496.234C319.842 496.234 334.171 521.822 334.171 553.385C334.171 554.665 334.145 555.935 334.098 557.194C333 527.408 319.125 503.854 302.167 503.854C285.208 503.855 271.333 527.408 270.235 557.194C270.189 555.935 270.163 554.665 270.163 553.385C270.163 521.822 284.491 496.235 302.167 496.234Z" fill="#D48080"/>
<ellipse cx="302.167" cy="561.005" rx="32.0041" ry="57.1501" fill="#EAD3C5"/>
<ellipse cx="301.786" cy="553.385" rx="21.7171" ry="41.1481" fill="#1D1C2A"/>
<ellipse cx="311.692" cy="534.335" rx="6.47702" ry="8.38202" fill="#FDF3FB"/>
<ellipse cx="316.264" cy="553.004" rx="3.42901" ry="4.19101" fill="white"/>
<path d="M419.572 478.34C411.41 480.473 408.269 479.509 404.332 475.292C401.157 470.86 400.324 467.077 400.465 463.469C400.58 460.53 401.412 458.585 403.894 454.706C403.679 458.374 403.609 460.247 403.513 462.707C403.513 467.279 403.344 474.073 405.475 474.148C405.475 464.623 406.618 458.908 410.428 455.479C421.858 449.002 447.378 444.933 459.196 445.192C493.867 445.954 520.155 451.236 537.301 466.147C495.021 465.987 470.844 466.526 419.572 478.34Z" fill="#343234"/>
<path d="M267.115 477.579C269.782 466.843 271.008 460.754 293.023 455.1C302.921 454.332 307.844 454.426 312.835 457.767C322.679 466.116 325.596 472.374 326.17 486.342C326.891 477.265 326.873 472.01 323.122 461.183C325.886 463.1 327.064 464.986 328.075 470.708C329.105 477.044 329.316 480.459 328.075 485.948L326.17 486.342C311.692 482.138 311.311 479.98 296.071 477.579C283.498 475.599 278.301 476.213 267.115 477.579Z" fill="#343234"/>
<path d="M435.566 711.881C443.227 713.634 451.534 719.499 468.713 732.836C467.253 707.126 463.31 697.568 450.044 690.164C445.328 686.717 438.783 683.595 416.135 677.972C397.085 672.638 389.306 667.605 376.13 666.923C368.829 668.451 364.479 670.52 356.317 676.067C345.564 671.473 340.882 670.156 336.886 671.876C316.693 682.925 302.962 692.665 296.5 701.594C293.833 711.5 294.221 726.24 295.738 730.931C302.104 723.93 307.277 719.469 315.55 713.405C316.404 711.993 322.447 710.127 336.505 706.166C342.655 705.234 346.071 703.918 352.126 700.451C354.031 698.546 354.793 697.784 356.317 694.736C357.112 697.91 358.201 698.926 360.128 700.451C364.394 702.417 371.838 703.496 389.084 705.404C403.38 705.89 413.75 707.41 435.566 711.881Z" fill="#3D3332" stroke="black"/>
<path d="M642.401 571.673C666.404 570.53 672.119 562.529 672.119 562.529C665.668 607.521 661.077 633.445 651.545 680.639C643.903 703.038 637.797 715.371 624.113 737.027C586.388 782.465 554.986 804.354 468.283 832.658C432.647 842.593 411.846 844.921 373.414 843.707C347.021 838.166 333.149 829.198 310.93 803.702C298.106 786.373 289.853 774.491 277.402 749.219C270.667 733.034 267.42 718.347 261.781 690.545C263.897 693.256 264.736 693.344 267.496 697.784C277.467 707.216 282.575 714.013 289.594 730.169C294.242 744.311 297.168 752.521 307.12 771.317C309.025 776.27 319.312 786.938 319.312 786.938C334.023 796.621 342.197 796.358 356.65 786.938C358.555 783.89 362.746 785.033 362.746 785.033C401.338 804.162 421.358 800.624 455.71 782.366C470.992 770.231 476.284 764.459 483.904 748.076C492.286 720.263 497.239 719.12 497.239 719.12C506.764 704.261 544.483 687.878 563.533 678.353C582.584 668.828 608.111 643.301 608.111 643.301C630.59 626.156 642.401 571.673 642.401 571.673Z" fill="#3D3332"/>
<path d="M384.844 750.362C359.698 752.648 340.648 749.6 340.648 749.6C340.965 758.282 346.479 762.639 362.746 769.793C378.955 762.626 384.082 758.388 384.844 750.362Z" fill="#3D3332"/>
<path d="M642.401 571.673C666.404 570.53 672.119 562.529 672.119 562.529C665.668 607.521 661.077 633.445 651.545 680.639C643.903 703.038 637.797 715.371 624.113 737.027C586.388 782.465 554.986 804.354 468.283 832.658C432.647 842.593 411.846 844.921 373.414 843.707C347.021 838.166 333.149 829.198 310.93 803.702C298.106 786.373 289.853 774.491 277.402 749.219C270.667 733.034 267.42 718.347 261.781 690.545C263.897 693.256 264.736 693.344 267.496 697.784C277.467 707.216 282.575 714.013 289.594 730.169C294.242 744.311 297.168 752.521 307.12 771.317C309.025 776.27 319.312 786.938 319.312 786.938C334.023 796.621 342.197 796.358 356.65 786.938C358.555 783.89 362.746 785.033 362.746 785.033C401.338 804.162 421.358 800.624 455.71 782.366C470.992 770.231 476.284 764.459 483.904 748.076C492.286 720.263 497.239 719.12 497.239 719.12C506.764 704.261 544.483 687.878 563.533 678.353C582.584 668.828 608.111 643.301 608.111 643.301C630.59 626.156 642.401 571.673 642.401 571.673Z" stroke="black"/>
<path d="M384.844 750.362C359.698 752.648 340.648 749.6 340.648 749.6C340.965 758.282 346.479 762.639 362.746 769.793C378.955 762.626 384.082 758.388 384.844 750.362Z" stroke="black"/>
<path d="M345.22 665.018C322.741 658.922 305.215 635.681 305.215 620.06C305.215 617.685 306.677 613.671 308.644 611.297C325.027 584.246 335.314 568.244 357.412 546.527H375.7L401.989 620.06C407.108 630.618 407.323 638.729 403.132 647.873C400.084 653.588 366.556 665.018 345.22 665.018Z" fill="#F5BDAE"/>
<g filter="url(#filter3_f_42_269)">
<path d="M347.125 665.78C325.092 657.737 306.662 637.864 306.739 623.489C315.823 627.838 318.199 630.029 346.363 632.252C359.54 630.801 381.553 628.602 405.037 648.254C401.989 653.969 368.461 665.78 347.125 665.78Z" fill="#DC7070" fill-opacity="0.9"/>
</g>
<path d="M365.975 636.443C360.385 636.754 359.346 637.773 362.927 641.777C370.582 645.667 375.319 647.444 384.263 650.159C381.587 641.699 378.34 638.17 365.975 636.443Z" fill="#B64847"/>
<g filter="url(#filter4_df_42_269)">
<path d="M304.005 624.251C300.195 615.488 331.761 571.27 358.107 544.241C342.91 566.649 319.139 602.879 318.483 603.677C309.675 614.393 308.216 619.213 309.339 626.537C311.388 634.368 315.909 638.57 325.722 645.968C333.185 652.215 337.867 655.616 346.677 661.589C350.512 664.9 349.622 665.563 343.629 665.018C321.341 652.552 311.092 644.423 304.005 624.251Z" fill="#C96361" fill-opacity="0.76" shape-rendering="crispEdges"/>
</g>
<path d="M381.074 740.075L344.117 740.456C343.572 748.76 348.547 750.245 363.548 749.219C376.084 747.44 380.779 745.708 381.074 740.075Z" fill="#D98D7D"/>
<path d="M424.849 714.856C429.422 714.319 430.945 711.808 424.849 711.427C379.878 709.496 356.396 709.922 319.312 714.856C318.931 714.856 318.185 715.938 318.169 716.761C318.15 717.752 319.104 718.666 319.312 718.666C361.812 720.487 420.277 715.392 424.849 714.856Z" fill="#BC5942"/>
<path d="M784.872 828.76C745.698 799.849 690.407 803.149 644.511 803.728C644.207 843.708 653.831 874.95 653.831 874.95C571.153 903.906 539.53 932.862 539.53 932.862C525.052 940.863 479.713 979.344 479.713 979.344C469.045 959.151 471.712 951.274 471.712 951.274C477.046 943.53 484.285 920.289 484.285 920.289C484.666 885.618 473.526 851.284 473.526 851.284C469.982 855.803 462.903 860.764 458.446 864.482C438.542 881.094 421.953 900.891 425.52 928.59C425.908 932.3 427.211 942.031 426.586 945.117C424.019 947.198 421.428 949.255 418.814 951.274C394.544 975.735 367.089 998.015 351.773 1029.78C347.917 1037.78 343.848 1045.58 340.092 1053.66C324.813 1087.11 310.892 1121.16 298.357 1155.73C293.838 1167.9 285.616 1188.6 282.355 1200.33H626.338H656.97H876C875.009 1189.94 871.329 1170.91 869.089 1159.89C857.895 1105.2 845.642 1048.8 819.49 999.029C814.308 989.169 806.764 983.957 799.236 976.298C798.299 975.338 799.129 973.083 799.381 971.787C802.078 966.499 805.256 957.645 806.559 951.884C812.662 925 798.748 916.314 787.493 898.079L786.899 897.111C785.84 893.225 792.805 874.906 793.681 868.925C795.342 857.495 795.708 836.761 784.872 828.76Z" fill="#2C2C4C"/>
<path d="M517.463 991.969C519.52 984.097 519.832 966.792 528.565 964.377C537.8 966.396 534.219 976.546 533.084 983.419L530.981 995.779L530.219 1001.97C527.75 1010.62 524.557 1039.98 523.498 1050.21C521.646 1060.71 521.151 1073.16 520.16 1083.86C517.851 1108.8 517.196 1135.98 513.531 1160.71C512.052 1162.38 510.178 1164.23 508.608 1165.87C508.326 1171.85 508.882 1184.97 503.769 1188.45C499.723 1187.38 498.839 1184.79 499.457 1181.01C501.316 1169.68 496.226 1156.9 497.3 1146.05C500.645 1112.43 504.387 1078.88 508.364 1045.35C508.364 1045.16 508.372 1044.97 508.372 1044.78C511.725 1030.22 514.529 1007.76 517.463 991.969Z" fill="#FCFBFD"/>
<path d="M447.938 967.371C449.767 963.142 451.054 959.759 456.358 961.793C461.349 967.828 455.969 979.411 454.095 986.498C451.123 997.813 448.372 1009.18 445.85 1020.6C437.072 1062.03 432.477 1104.29 425.847 1146.03C425.718 1146.81 422.152 1151.48 421.428 1152.42C421.031 1158.21 421.077 1169.47 415.796 1172.88C409.312 1171.64 412.962 1155.84 413.724 1151.11C410.097 1144.57 410.874 1140.44 411.895 1133.15C418.928 1082.69 429.375 1032.8 442.855 983.671C443.122 982.71 443.069 982.878 443.373 982.085C445.438 977.605 446.665 972.187 447.938 967.371Z" fill="#FCFBFD"/>
<path d="M533.084 983.419C534.577 984.92 535.362 985.134 537.396 984.448C546.152 981.545 554.671 976.828 563.274 973.643C596.528 961.314 628.258 946.866 662.822 938.156C691.626 930.894 721.778 925.972 749.446 915.228C758.171 911.837 766.652 907.463 774.714 902.731C777.74 900.963 783.996 895.88 786.899 895.979L787.493 896.947C798.748 915.182 812.662 923.869 806.558 950.752C805.255 956.513 802.078 965.367 799.38 970.656L797.163 972.309C779.622 966.937 769.944 962.937 750.246 961.451C689.599 956.879 627.054 970.298 568.258 984.524C557.612 987.1 542.837 989.675 533.053 992.662C532.809 995.405 532.847 996.625 531.849 999.208C531.461 997.836 531.262 997.173 530.98 995.779L533.084 983.419Z" fill="#1B1B2D"/>
<path d="M644.206 804.379C646.698 808.159 645.067 814.224 647.132 814.765C652.207 816.091 668.019 814.521 674.084 814.582C689.5 814.735 741.941 819.223 751.405 829.624C752.662 830.996 753.264 832.817 752.99 834.669C752.441 838.387 749.119 841.283 746.162 843.264C727.676 855.647 695.253 860.821 673.879 866.825C667.272 868.684 660.742 871.382 654.341 873.859L653.198 873.34C646.691 851.539 644.824 832.855 643.795 810.026L644.206 804.379Z" fill="#1B1B2D"/>
<path d="M626.337 1199.2C635.832 1166.79 646.477 1135.07 658.943 1103.66C663.538 1092.1 668.705 1082.47 673.421 1071.56C670.754 1089.02 667.447 1105.96 664.933 1123.53C661.306 1148.86 659.804 1173.95 656.97 1199.2H626.337Z" fill="#1B1B2D"/>
<path d="M466.027 942.926C457.036 915.86 451.725 887.963 477.183 867.587C478.227 873.516 479.416 881.532 480.742 887.254C482.22 898.357 482.753 908.156 483.005 919.35L477.694 934.75C471.681 937.036 471.78 936.914 469.083 942.85C468.732 943.612 468.397 944.389 468.077 945.167L466.027 942.926Z" fill="#1B1B2D"/>
<path d="M426.586 943.986C430 946.294 437.689 966.998 443.731 972.927C445.263 972.088 446.01 968.202 446.726 966.023C447.762 966.549 447.313 966.145 447.938 967.371C446.665 972.187 445.438 977.605 443.373 982.086C439.754 975.632 420.505 966.77 418.814 950.143C421.427 948.123 424.018 946.066 426.586 943.986Z" fill="#1B1B2D"/>
<path d="M492.248 999.208C496.149 998.057 513.393 991.413 516.297 989.53C516.419 988.258 516.548 987.092 516.716 985.827L517.371 985.995L517.463 991.969C514.529 1007.76 511.725 1030.22 508.372 1044.78C505.56 1039.62 513.675 1008.69 513.82 998.697C511.74 997.234 496.431 999.132 492.248 999.208Z" fill="#1B1B2D"/>
<path d="M530.218 1001.97L531.316 1003.04C530.058 1013.98 528.679 1024.9 527.17 1035.81C526.393 1041.34 524.709 1050.6 524.511 1055.87L523.863 1056.37C523.726 1054.32 523.604 1052.27 523.498 1050.21C524.557 1039.98 527.75 1010.62 530.218 1001.97Z" fill="#1B1B2D"/>
<path d="M329.98 1200.32C350.173 1121.08 377.605 1038.4 370.747 1063.16C363.889 1087.93 349.411 1200.32 349.411 1200.32H329.98Z" fill="#1B1B2D"/>
</g>
<defs>
<filter id="filter0_f_42_269" x="466.562" y="759.744" width="144.001" height="129.987" filterUnits="userSpaceOnUse" color-interpolation-filters="sRGB">
<feFlood flood-opacity="0" result="BackgroundImageFix"/>
<feBlend mode="normal" in="SourceGraphic" in2="BackgroundImageFix" result="shape"/>
<feGaussianBlur stdDeviation="2" result="effect1_foregroundBlur_42_269"/>
</filter>
<filter id="filter1_f_42_269" x="468.094" y="617.965" width="99.436" height="44.5811" filterUnits="userSpaceOnUse" color-interpolation-filters="sRGB">
<feFlood flood-opacity="0" result="BackgroundImageFix"/>
<feBlend mode="normal" in="SourceGraphic" in2="BackgroundImageFix" result="shape"/>
<feGaussianBlur stdDeviation="2" result="effect1_foregroundBlur_42_269"/>
</filter>
<filter id="filter2_f_42_269" x="257.257" y="632.574" width="57.2749" height="33.804" filterUnits="userSpaceOnUse" color-interpolation-filters="sRGB">
<feFlood flood-opacity="0" result="BackgroundImageFix"/>
<feBlend mode="normal" in="SourceGraphic" in2="BackgroundImageFix" result="shape"/>
<feGaussianBlur stdDeviation="2" result="effect1_foregroundBlur_42_269"/>
</filter>
<filter id="filter3_f_42_269" x="302.739" y="619.489" width="106.298" height="50.291" filterUnits="userSpaceOnUse" color-interpolation-filters="sRGB">
<feFlood flood-opacity="0" result="BackgroundImageFix"/>
<feBlend mode="normal" in="SourceGraphic" in2="BackgroundImageFix" result="shape"/>
<feGaussianBlur stdDeviation="2" result="effect1_foregroundBlur_42_269"/>
</filter>
<filter id="filter4_df_42_269" x="299.691" y="540.241" width="63.4165" height="130.948" filterUnits="userSpaceOnUse" color-interpolation-filters="sRGB">
<feFlood flood-opacity="0" result="BackgroundImageFix"/>
<feColorMatrix in="SourceAlpha" type="matrix" values="0 0 0 0 0 0 0 0 0 0 0 0 0 0 0 0 0 0 127 0" result="hardAlpha"/>
<feOffset dx="1" dy="2"/>
<feGaussianBlur stdDeviation="2"/>
<feComposite in2="hardAlpha" operator="out"/>
<feColorMatrix type="matrix" values="0 0 0 0 0.862745 0 0 0 0 0.439216 0 0 0 0 0.439216 0 0 0 1 0"/>
<feBlend mode="normal" in2="BackgroundImageFix" result="effect1_dropShadow_42_269"/>
<feBlend mode="normal" in="SourceGraphic" in2="effect1_dropShadow_42_269" result="shape"/>
<feGaussianBlur stdDeviation="2" result="effect2_foregroundBlur_42_269"/>
</filter>
<linearGradient id="paint0_linear_42_269" x1="785.099" y1="473.84" x2="688.883" y2="659.463" gradientUnits="userSpaceOnUse">
<stop stop-color="#EA8E87"/>
<stop offset="1" stop-color="#FACFBD"/>
</linearGradient>
<clipPath id="clip0_42_269">
<rect width="1200" height="1200" fill="white"/>
</clipPath>
</defs>
</svg>
