<svg width="2564" height="1376" viewBox="0 0 2564 1376" fill="none" xmlns="http://www.w3.org/2000/svg">
<path opacity="0.4" d="M2288.5 0C2440.65 0 2564 130.285 2564 291C2564 425.864 2477.14 539.299 2359.29 572.302C2377 605.905 2387 644.055 2387 684.5C2387 783.726 2326.8 869.145 2240.31 907.471C2240.77 914.424 2241 921.436 2241 928.5C2241 1109.37 2089.67 1256 1903 1256C1868.83 1256 1835.85 1251.09 1804.76 1241.95C1743.25 1323.23 1643.99 1376 1532 1376C1436.35 1376 1349.99 1337.51 1288.5 1275.63C1227.01 1337.51 1140.65 1376 1045 1376C902.725 1376 780.981 1290.83 731.119 1170.23C681.831 1197.45 624.79 1213 564 1213C377.328 1213 226 1066.37 226 885.5C226 871.534 226.903 857.773 228.654 844.268C144.184 798.146 87 709.404 87 607.5C87 577.834 91.846 549.284 100.801 522.575C39.5772 469.555 0 385.335 0 290.5C0 130.061 113.272 0 253 0C392.728 0 506 130.061 506 290.5C506 318.663 502.509 345.89 495.998 371.642C567.554 411.351 619.219 481.765 632.59 564.748C744.532 587.105 836.254 663.094 877.88 763.769C927.168 736.55 984.21 721 1045 721C1140.65 721 1227.01 759.494 1288.5 821.364C1349.99 759.494 1436.35 721 1532 721C1566.17 721 1599.15 725.913 1630.24 735.049C1691.75 653.771 1791.01 601 1903 601C1903.3 601 1903.6 601.001 1903.9 601.002C1929.77 531.087 1987.2 476.043 2059.27 452.474C2030.04 406.272 2013 350.738 2013 291C2013 130.285 2136.35 0 2288.5 0Z" fill="#1F2525"/>
</svg>
