<svg width="2478" height="950" viewBox="0 0 2478 950" fill="none" xmlns="http://www.w3.org/2000/svg">
<path d="M231.701 0C354.938 0 455.701 116.174 462.98 262.772C540.503 279.631 607.808 322.884 654.449 382.347C681.753 374.318 710.713 370 740.709 370C845.137 370 937.006 422.313 990.145 501.474C1017.37 490.224 1047.32 484 1078.76 484C1163.72 484 1237.76 529.426 1276.6 596.661C1318.09 538.266 1387.45 500 1466 500C1523.9 500 1576.8 520.791 1617.23 555.107C1659.36 480.309 1745.98 429 1846 429C1857.3 429 1868.43 429.656 1879.35 430.926C1922.49 344.83 2001.26 283.348 2093.8 270.495C2090.69 225.696 2101.54 177.423 2127.69 133.356C2188.29 31.241 2308.06 -9.6147 2395.22 42.1025C2482.37 93.8202 2503.9 218.528 2443.31 320.644C2422.68 355.401 2395.2 383.058 2364.48 402.386C2396.95 453.403 2416 515.505 2416 582.5C2416 756.194 2287.95 897 2130 897C2075.96 897 2025.42 880.516 1982.31 851.873C1942.84 874.125 1896.1 887 1846 887C1778.28 887 1716.71 863.481 1670.93 825.077C1632.86 897.451 1555.39 947 1466 947C1379.14 947 1303.53 900.216 1264.4 831.166C1223.37 887.913 1155.52 924.998 1078.76 924.998C1025.35 924.998 976.257 907.043 937.509 877.003C885.043 922.009 816.154 949.314 740.709 949.314C661.373 949.314 589.286 919.12 535.923 869.898C491.945 890.828 442.523 902.575 390.285 902.575C206.769 902.575 58 757.61 58 578.787C58 545.542 63.1431 513.467 72.6943 483.276C27.9351 432.265 0 359.961 0 279.777C0.000109274 125.261 103.736 0.000119523 231.701 0Z" fill="currentColor"/>
</svg>
