<svg width="772" height="547" viewBox="0 0 772 547" fill="none" xmlns="http://www.w3.org/2000/svg">
<path d="M3.67706 249.65C-5.70137 302.839 5.0033 341.468 44.8991 416.464C45.3679 417.345 46.716 417.08 46.8012 416.086C53.0986 342.525 72.0294 294.419 105.177 224.15C169.678 243.92 207.899 240.248 278.177 218.65L347.177 184.65L513.677 243.15C503.875 263.464 500.904 277.637 497.177 304.65C493.215 322.961 493.321 336.489 495.677 363.65C496.519 396 539.019 407 541.519 421C544.019 435 542.683 450.603 542.177 472C541.562 498.027 541.057 522.661 542.813 544.109C542.915 545.354 544.129 546.19 545.332 545.854L577.019 537L731.519 445C749.127 394.247 760.677 349.65 768.677 313.15C778.677 239.65 752.915 205.828 714.177 184.65C706.788 106.91 678.146 69.6246 566.677 18.65C495.045 -0.368212 451.061 -8.54038 373.177 14.65L155.177 59.15C108.223 76.9483 93.1966 95.7519 75.177 136.15C67.599 159.693 69.0656 174.288 79.177 202.15C66.5144 193.043 62.565 185.544 58.177 170.15C19.4856 205.988 11.0738 222.426 3.67706 249.65Z" fill="#272225" stroke="black"/>
</svg>
