<svg width="565" height="327" viewBox="0 0 565 327" fill="none" xmlns="http://www.w3.org/2000/svg">
<path d="M35.0727 226.919C30.5827 214.967 28.4428 198.376 28.1728 185.988C27.7528 166.752 35.8427 141.338 50.3327 127.902C79.6327 100.737 116.583 90.1074 155.663 90.3034C205.043 90.5514 246.493 106.95 287.583 133.307C298.323 140.197 313.233 150.958 322.153 159.876C365.113 206.603 409.573 245.906 477.253 250.171C503.873 251.848 541.133 243.319 564.793 230.895C543.953 272.887 516.923 296.754 472.643 313.906C466.563 316.26 455.063 319.049 448.503 321.295C447.833 322.382 447.253 323.318 446.763 324.102C444.713 321.113 436.233 323.831 432.423 324.411C364.483 334.759 291.443 310.558 245.433 258.984C241.143 254.173 231.923 239.166 227.613 236.93L208.743 242.72C179.473 251.095 148.313 257.496 117.713 255.125C106.273 253.957 92.7427 252.751 81.9527 249.004C73.0927 247.081 64.5827 243.559 56.0827 240.346L55.1528 240.701C48.6628 238.448 40.6727 231.377 35.0727 226.919Z" fill="#3A3538"/>
<path d="M10.5 201C5.5 199.264 1.38853 164.066 0.548533 156.206C-2.78147 128.508 9.41851 97.5174 27.1485 76.7734C92.8485 -0.101624 207.198 -20.2576 298.108 20.8924C304.128 23.6154 319.059 31.9034 324.939 30.9354C325.609 33.6284 326.919 34.8944 329.579 36.0794C411.259 72.6044 466.199 142.596 500.589 226.045C491.029 227.832 481.138 229.602 471.248 228.536C419.5 226.045 375.061 199.973 335.5 168C330.39 164.71 333 165 327.5 161L316.5 146.5C307.58 137.582 298.728 140.197 287.988 133.307C246.898 106.95 205.449 90.5514 156.069 90.3034C116.989 90.1074 80.0385 100.737 50.7385 127.902C36.2485 141.338 28.1586 166.752 28.5786 185.988C28.8464 198.275 30.9537 214.697 35.3692 226.626C36.1941 227.416 36.3325 227.599 35.4785 226.919C35.4419 226.822 35.4055 226.724 35.3692 226.626C30.7851 222.236 4.99977 199.091 10.5 201Z" fill="#3A3538"/>
<path d="M21.1087 164.761C16.5487 187.299 27.0186 206.264 35.0086 226.868C30.5186 214.916 28.3787 198.325 28.1087 185.937C27.6887 166.701 35.7786 141.287 50.2686 127.851C79.5686 100.686 116.519 90.0564 155.599 90.2524C204.979 90.5004 246.429 106.899 287.519 133.256C298.259 140.146 313.169 150.907 322.089 159.825L324.159 157.486C292.329 110.378 251.169 80.7474 194.739 69.5934C150.549 60.8604 107.729 67.8434 69.6686 92.7564C47.1886 107.474 26.4987 138.111 21.1087 164.761Z" fill="#2B272A"/>
</svg>
