<svg width="331" height="365" viewBox="0 0 331 365" fill="none" xmlns="http://www.w3.org/2000/svg">
<path d="M0 1.14449C9.21 -0.193506 25.9401 -0.101511 35.4801 0.154489C99.7701 2.10249 161.87 23.9335 213.24 62.6415C241.23 83.4835 272.2 115.76 277.52 151.479C279.11 162.11 277.43 171.442 275.11 181.779C303.59 197.335 314.41 209.529 325.15 241.71C330.29 257.098 331.83 301.876 328.01 316.982L327.14 312.785C320.78 306.542 301.7 301.843 299.66 294.22C303.46 294.468 314.06 307.086 322.27 305.927L323.47 304.022L323.32 302.711C323.25 302.063 323.18 301.415 323.11 300.768C324.29 270.609 322.71 242.084 306.16 215.449C301.15 207.372 282.97 191.662 273.38 189.724C268.61 190.459 261.1 196.49 256.64 199.482C255.44 208.645 256.89 224.233 256.32 226.793C253.71 214.468 253.9 211.487 254.6 199.039C261.01 194.456 266.17 190.873 272.94 186.742C177.81 182.446 35.71 98.8265 12 1.6175C7.97 1.5925 4.02 1.35949 0 1.14449Z" fill="#3A3538"/>
<path d="M157.727 267.706C168.508 343.085 208.021 357.007 298.727 364.706C277.985 316.535 269.064 286.809 254.227 232.706C242.837 195.46 232.943 186.599 211.227 184.706C169.47 199.283 156.996 216.802 157.727 267.706Z" fill="#3A3538"/>
<path d="M328.727 318.206C337.568 230.425 284.227 166.706 262.227 189.706C240.227 212.706 262.194 282.794 328.727 318.206Z" fill="#3A3538"/>
</svg>
