<svg width="50" height="295" viewBox="0 0 50 295" fill="none" xmlns="http://www.w3.org/2000/svg">
<path d="M26.6577 36.2101C29.3577 25.8801 29.7677 3.17 41.2277 0C53.3477 2.65 48.6477 15.97 47.1577 24.99L44.3977 41.2101L43.3977 49.3301C40.1577 60.6901 35.9677 99.22 34.5777 112.64C32.1477 126.42 31.4977 142.76 30.1977 156.8C27.1677 189.53 26.3077 225.2 21.4977 257.65C19.5577 259.84 17.0977 262.27 15.0377 264.42C14.6677 272.27 15.3976 289.49 8.68765 294.06C3.37765 292.65 2.21774 289.25 3.02774 284.29C5.46774 269.43 -1.21234 252.65 0.197659 238.41C4.58766 194.3 9.49768 150.27 14.7177 106.27C14.7177 106.02 14.7277 105.76 14.7277 105.51C19.1277 86.41 22.8077 56.9301 26.6577 36.2101Z" fill="#FCFBFD"/>
</svg>
