<svg width="63" height="278" viewBox="0 0 63 278" fill="none" xmlns="http://www.w3.org/2000/svg">
<path d="M48.4179 8.11741C50.8179 2.56741 52.5078 -1.87265 59.4678 0.797346C66.0178 8.71735 58.9578 23.9174 56.4978 33.2174C52.5978 48.0674 48.9879 62.9874 45.6779 77.9774C34.1579 132.347 28.1279 187.797 19.4279 242.577C19.2579 243.597 14.5778 249.727 13.6278 250.957C13.1078 258.557 13.1678 273.337 6.23782 277.817C-2.27218 276.187 2.51785 255.457 3.51785 249.237C-1.24215 240.657 -0.22217 235.237 1.11783 225.677C10.3478 159.457 24.0578 93.9774 41.7478 29.5074C42.0978 28.2474 42.0279 28.4674 42.4279 27.4274C45.1379 21.5474 46.7479 14.4374 48.4179 8.11741Z" fill="#FCFBFD"/>
</svg>
