<svg width="780" height="521" viewBox="0 0 780 521" fill="none" xmlns="http://www.w3.org/2000/svg">
<path d="M659.47 33.3833C608.06 -4.55674 535.5 -0.226717 475.27 0.533283C474.87 53 487.5 94 487.5 94C379 132 337.5 170 337.5 170C318.5 180.5 259 231 259 231C245 204.5 248.5 194.163 248.5 194.163C255.5 184 265 153.5 265 153.5C265.5 108 250.88 62.9432 250.88 62.9432C246.23 68.8732 236.94 75.3833 231.09 80.2633C204.97 102.063 183.2 128.043 187.88 164.393C188.39 169.263 190.1 182.033 189.28 186.083C185.91 188.813 182.51 191.513 179.08 194.163C147.23 226.263 111.2 255.503 91.1 297.193C86.04 307.683 80.7 317.923 75.77 328.523C55.72 372.423 37.45 417.113 21 462.483C15.07 478.443 4.28 505.613 0 521.003H451.42H491.62H779.06C777.76 507.373 772.93 482.403 769.99 467.933C755.3 396.163 739.22 322.153 704.9 256.833C698.1 243.893 688.2 237.053 678.32 227.003C677.09 225.743 678.18 222.783 678.51 221.083C682.05 214.143 686.22 202.523 687.93 194.963C695.94 159.683 677.68 148.283 662.91 124.353L662.13 123.083C660.74 117.983 669.88 93.9432 671.03 86.0932C673.21 71.0932 673.69 43.8833 659.47 33.3833Z" fill="#2C2C4C"/>
</svg>
