<svg width="628" height="520" viewBox="0 0 628 520" fill="none" xmlns="http://www.w3.org/2000/svg">
<path d="M266.54 234.96C268.5 236.93 269.53 237.21 272.2 236.31C283.69 232.5 294.87 226.31 306.16 222.13C349.8 205.95 391.44 186.99 436.8 175.56C474.6 166.03 514.17 159.57 550.48 145.47C561.93 141.02 573.06 135.28 583.64 129.07C587.61 126.75 595.82 120.08 599.63 120.21L600.41 121.48C615.18 145.41 633.44 156.81 625.43 192.09C623.72 199.65 619.55 211.27 616.01 218.21L613.1 220.38C590.08 213.33 577.38 208.08 551.53 206.13C471.94 200.13 389.86 217.74 312.7 236.41C298.73 239.79 279.34 243.17 266.5 247.09C266.18 250.69 266.23 252.29 264.92 255.68C264.41 253.88 264.15 253.01 263.78 251.18L266.54 234.96Z" fill="#1B1B2D"/>
<path d="M412.37 0C415.64 4.96 413.5 12.92 416.21 13.63C422.87 15.37 443.62 13.31 451.58 13.39C471.81 13.59 540.63 19.48 553.05 33.13C554.7 34.93 555.49 37.32 555.13 39.75C554.41 44.63 550.05 48.43 546.17 51.03C521.91 67.28 479.36 74.07 451.31 81.95C442.64 84.39 434.07 87.9301 425.67 91.1801L424.17 90.5C415.63 61.89 413.18 37.37 411.83 7.41003L412.37 0Z" fill="#1B1B2D"/>
<path d="M388.92 518.13C401.38 475.61 415.35 433.98 431.71 392.76C437.74 377.58 444.52 364.95 450.71 350.63C447.21 373.54 442.87 395.77 439.57 418.83C434.81 452.08 432.84 485 429.12 518.13H388.92Z" fill="#1B1B2D"/>
<path d="M178.54 181.82C166.74 146.3 159.77 109.69 193.18 82.95C194.55 90.73 196.11 101.25 197.85 108.76C199.79 123.33 200.49 136.19 200.82 150.88L193.85 171.09C185.96 174.09 186.09 173.93 182.55 181.72C182.09 182.72 181.65 183.74 181.23 184.76L178.54 181.82Z" fill="#1B1B2D"/>
<path d="M126.78 183.21C131.26 186.24 141.35 213.41 149.28 221.19C151.29 220.09 152.27 214.99 153.21 212.13C154.57 212.82 153.98 212.29 154.8 213.9C153.13 220.22 151.52 227.33 148.81 233.21C144.06 224.74 118.8 213.11 116.58 191.29C120.01 188.64 123.41 185.94 126.78 183.21Z" fill="#1B1B2D"/>
<path d="M212.95 255.68C218.07 254.17 240.7 245.45 244.51 242.98C244.67 241.31 244.84 239.78 245.06 238.12L245.92 238.34L246.04 246.18C242.19 266.9 238.51 296.38 234.11 315.48C230.42 308.71 241.07 268.12 241.26 255.01C238.53 253.09 218.44 255.58 212.95 255.68Z" fill="#1B1B2D"/>
<path d="M262.78 259.3L264.22 260.71C262.57 275.06 260.76 289.4 258.78 303.71C257.76 310.97 255.55 323.12 255.29 330.04L254.44 330.7C254.26 328 254.1 325.31 253.96 322.61C255.35 309.19 259.54 270.66 262.78 259.3Z" fill="#1B1B2D"/>
<path d="M0 519.612C26.5 415.612 62.5 307.113 53.5 339.612C44.5 372.112 25.5 519.612 25.5 519.612H0Z" fill="#1B1B2D"/>
</svg>
