<svg width="84" height="160" viewBox="0 0 84 160" fill="none" xmlns="http://www.w3.org/2000/svg">
<path d="M83.9043 80C83.9652 81.6527 84 83.3198 84 85C84 126.421 65.196 160 42 160C18.804 160 0 126.421 0 85C0 83.3198 0.0338094 81.6526 0.0947266 80C1.5356 119.09 19.7449 150 42 150C64.2551 150 82.4634 119.09 83.9043 80ZM42 0C65.196 0 84 33.5786 84 75C84 76.6802 83.9652 78.3473 83.9043 80C82.4634 40.9099 64.2551 10 42 10C19.7449 10 1.5356 40.9099 0.0947266 80C0.0338094 78.3473 0 76.6802 0 75C0 33.5786 18.804 0 42 0Z" fill="#D48080"/>
</svg>
