<svg width="89" height="153" viewBox="0 0 89 153" fill="none" xmlns="http://www.w3.org/2000/svg">
<ellipse cx="43.9998" cy="77" rx="42" ry="75" fill="#EDAFA5"/>
<path d="M16 133.496C7.09958 117.478 5.72499 108.588 4.47248 98.3649C4.34672 97.3385 5.54011 96.906 6.0111 97.8266C9.98158 105.587 11.7599 116.716 16 124.5C24.0289 139.24 34.9652 146.511 42.5 146.5C51.0211 146.488 63.1511 141.131 73.0002 123.5C76.63 117.002 79.1948 108.674 82.071 99.3318C82.4253 98.1811 83.9409 98.5151 83.7656 99.7063C81.3306 116.249 78.1117 123.908 72 133.496C60.5002 149 52.0002 153 42.5 153C28.0002 151.004 21.0002 141 16 133.496Z" fill="#3B3532"/>
<g opacity="0.46" filter="url(#filter0_fn_39_247)">
<path d="M41.5004 4C29.0004 4.00009 3.99998 8.99999 4 82C4.00002 155 87.4995 160 84 82C80.5004 4 54.0004 3.99991 41.5004 4Z" fill="#D19A9A" fill-opacity="0.2"/>
<path d="M41.5004 4C29.0004 4.00009 3.99998 8.99999 4 82C4.00002 155 87.4995 160 84 82C80.5004 4 54.0004 3.99991 41.5004 4Z" fill="#E35C5C" fill-opacity="0.2"/>
</g>
<defs>
<filter id="filter0_fn_39_247" x="0" y="0" width="88.1069" height="142.641" filterUnits="userSpaceOnUse" color-interpolation-filters="sRGB">
<feFlood flood-opacity="0" result="BackgroundImageFix"/>
<feBlend mode="normal" in="SourceGraphic" in2="BackgroundImageFix" result="shape"/>
<feGaussianBlur stdDeviation="2" result="effect1_foregroundBlur_39_247"/>
<feTurbulence type="fractalNoise" baseFrequency="2 2" stitchTiles="stitch" numOctaves="3" result="noise" seed="4389" />
<feColorMatrix in="noise" type="luminanceToAlpha" result="alphaNoise" />
<feComponentTransfer in="alphaNoise" result="coloredNoise1">
<feFuncA type="discrete" tableValues="1 1 1 1 1 1 1 1 1 1 1 1 1 1 1 1 1 1 1 1 1 1 1 1 1 1 1 1 1 1 1 1 1 1 1 1 1 1 1 1 1 1 1 1 1 1 1 1 1 1 1 0 0 0 0 0 0 0 0 0 0 0 0 0 0 0 0 0 0 0 0 0 0 0 0 0 0 0 0 0 0 0 0 0 0 0 0 0 0 0 0 0 0 0 0 0 0 0 0 0 "/>
</feComponentTransfer>
<feComposite operator="in" in2="effect1_foregroundBlur_39_247" in="coloredNoise1" result="noise1Clipped" />
<feFlood flood-color="rgba(0, 0, 0, 0.25)" result="color1Flood" />
<feComposite operator="in" in2="noise1Clipped" in="color1Flood" result="color1" />
<feMerge result="effect2_noise_39_247">
<feMergeNode in="effect1_foregroundBlur_39_247" />
<feMergeNode in="color1" />
</feMerge>
</filter>
</defs>
</svg>
