<svg width="165" height="167" viewBox="0 0 165 167" fill="none" xmlns="http://www.w3.org/2000/svg">
<circle cx="82" cy="84" r="82" fill="#EFB3A8"/>
<path d="M80 166.5C113.737 165.588 153.896 147.034 161.305 106.785C161.716 104.553 158.748 103.866 157.754 105.906C138.551 145.301 100.922 157.458 78 158C57.4988 158.485 23.5515 133.632 8.4109 109.782C7.14126 107.782 3.62218 108.787 4.38584 111.03C14.409 140.462 48.805 167.343 80 166.5Z" fill="#393431"/>
<g opacity="0.46" filter="url(#filter0_fn_39_232)">
<path d="M83.8503 4.00002C72.73 3.99784 -10.3124 3.98156 8.06552 97C26.5284 190.449 152.17 153.365 159.566 90.4999C166.961 27.6352 94.4999 4.0001 83.9999 4.00004L83.8503 4.00002Z" fill="#D19A9A" fill-opacity="0.2"/>
<path d="M83.8503 4.00002C72.73 3.99784 -10.3124 3.98156 8.06552 97C26.5284 190.449 152.17 153.365 159.566 90.4999C166.961 27.6352 94.4999 4.0001 83.9999 4.00004L83.8503 4.00002Z" fill="#E35C5C" fill-opacity="0.2"/>
</g>
<defs>
<filter id="filter0_fn_39_232" x="1.42114" y="0" width="162.673" height="157.474" filterUnits="userSpaceOnUse" color-interpolation-filters="sRGB">
<feFlood flood-opacity="0" result="BackgroundImageFix"/>
<feBlend mode="normal" in="SourceGraphic" in2="BackgroundImageFix" result="shape"/>
<feGaussianBlur stdDeviation="2" result="effect1_foregroundBlur_39_232"/>
<feTurbulence type="fractalNoise" baseFrequency="2 2" stitchTiles="stitch" numOctaves="3" result="noise" seed="4389" />
<feColorMatrix in="noise" type="luminanceToAlpha" result="alphaNoise" />
<feComponentTransfer in="alphaNoise" result="coloredNoise1">
<feFuncA type="discrete" tableValues="1 1 1 1 1 1 1 1 1 1 1 1 1 1 1 1 1 1 1 1 1 1 1 1 1 1 1 1 1 1 1 1 1 1 1 1 1 1 1 1 1 1 1 1 1 1 1 1 1 1 1 0 0 0 0 0 0 0 0 0 0 0 0 0 0 0 0 0 0 0 0 0 0 0 0 0 0 0 0 0 0 0 0 0 0 0 0 0 0 0 0 0 0 0 0 0 0 0 0 0 "/>
</feComponentTransfer>
<feComposite operator="in" in2="effect1_foregroundBlur_39_232" in="coloredNoise1" result="noise1Clipped" />
<feFlood flood-color="rgba(0, 0, 0, 0.25)" result="color1Flood" />
<feComposite operator="in" in2="noise1Clipped" in="color1Flood" result="color1" />
<feMerge result="effect2_noise_39_232">
<feMergeNode in="effect1_foregroundBlur_39_232" />
<feMergeNode in="color1" />
</feMerge>
</filter>
</defs>
</svg>
